<svg width="11" height="23" viewBox="0 0 11 23" fill="none" xmlns="http://www.w3.org/2000/svg">
<path d="M9.49993 6.00002V17.4992C9.50768 18.0294 9.40994 18.5559 9.21241 19.0479C9.01488 19.54 8.72149 19.9879 8.3493 20.3656C7.97711 20.7432 7.53355 21.0432 7.04441 21.2479C6.55527 21.4526 6.03032 21.558 5.50007 21.558C4.96983 21.558 4.44487 21.4526 3.95573 21.2479C3.4666 21.0432 3.02304 20.7432 2.65085 20.3656C2.27866 19.9879 1.98526 19.54 1.78773 19.0479C1.5902 18.5559 1.49246 18.0294 1.50021 17.4992V5.00016C1.50021 4.3371 1.76361 3.7012 2.23247 3.23234C2.70132 2.76349 3.33722 2.50009 4.00029 2.50009C4.66335 2.50009 5.29925 2.76349 5.7681 3.23234C6.23696 3.7012 6.50036 4.3371 6.50036 5.00016V15.4995C6.50036 15.7647 6.39501 16.019 6.20751 16.2065C6.02 16.394 5.76568 16.4994 5.5005 16.4994C5.23532 16.4994 4.981 16.394 4.79349 16.2065C4.60598 16.019 4.50064 15.7647 4.50064 15.4995V6.00002H3V15.4995C3 16.1626 3.2634 16.7985 3.73225 17.2673C4.20111 17.7362 4.83701 17.9996 5.50007 17.9996C6.16313 17.9996 6.79903 17.7362 7.26789 17.2673C7.73674 16.7985 8.00014 16.1626 8.00014 15.4995V5.00016C8.00789 4.46997 7.91016 3.94353 7.71263 3.45145C7.51509 2.95938 7.2217 2.51148 6.84951 2.13381C6.47732 1.75614 6.03376 1.45623 5.54462 1.25153C5.05548 1.04682 4.53053 0.941406 4.00029 0.941406C3.47004 0.941406 2.94509 1.04682 2.45595 1.25153C1.96681 1.45623 1.52325 1.75614 1.15106 2.13381C0.77887 2.51148 0.485479 2.95938 0.287945 3.45145C0.0904111 3.94353 -0.00732257 4.46997 0.000427321 5.00016V17.4992C0.000427321 18.9579 0.579897 20.3569 1.61136 21.3884C2.64282 22.4198 4.04179 22.9993 5.5005 22.9993C6.95921 22.9993 8.35817 22.4198 9.38964 21.3884C10.4211 20.3569 11.0006 18.9579 11.0006 17.4992V6.00002H9.49993Z" fill="#969696"/>
</svg>
