<svg width="13" height="13" viewBox="0 0 13 13" fill="none" xmlns="http://www.w3.org/2000/svg">
<path d="M6.25834 0C5.02055 0 3.81057 0.367045 2.78139 1.05472C1.75221 1.74239 0.950068 2.71981 0.47639 3.86337C0.00271166 5.00693 -0.121224 6.26528 0.120255 7.47927C0.361734 8.69327 0.957782 9.8084 1.83303 10.6836C2.70827 11.5589 3.8234 12.1549 5.0374 12.3964C6.25139 12.6379 7.50973 12.514 8.65329 12.0403C9.79686 11.5666 10.7743 10.7645 11.4619 9.73528C12.1496 8.7061 12.5167 7.49611 12.5167 6.25833C12.5162 4.59866 11.8567 3.00708 10.6832 1.83351C9.50959 0.659942 7.91801 0.000441815 6.25834 0ZM6.88417 9.38667H5.63417V5.6325H6.88417V9.38667ZM6.88417 4.38H5.63417V3.13H6.88417V4.38Z" fill="#969696"/>
</svg>
