<svg width="24" height="24" viewBox="0 0 24 24" fill="none" xmlns="http://www.w3.org/2000/svg">
<g id="Group 91 2" clip-path="url(#clip0_24_4896)">
<g id="Group 91">
<path id="Ellipse 11" d="M12 24C18.6274 24 24 18.6274 24 12C24 5.37258 18.6274 0 12 0C5.37258 0 0 5.37258 0 12C0 18.6274 5.37258 24 12 24Z" fill="white"/>
<g id="favorite-24px">
<path id="Path 60" d="M12.0002 18.233L11.0332 17.353C7.60019 14.24 5.33319 12.187 5.33319 9.667C5.32838 9.1841 5.41994 8.7051 5.60252 8.25802C5.7851 7.81095 6.05503 7.40479 6.3965 7.06331C6.73798 6.72184 7.14414 6.45191 7.59121 6.26933C8.03829 6.08675 8.51729 5.99519 9.00019 6C9.57074 6.00431 10.1337 6.13088 10.6512 6.37117C11.1688 6.61146 11.6287 6.9599 12.0002 7.393C12.3716 6.9599 12.8316 6.61146 13.3491 6.37117C13.8666 6.13088 14.4296 6.00431 15.0002 6C15.4831 5.99519 15.9621 6.08675 16.4092 6.26933C16.8562 6.45191 17.2624 6.72184 17.6039 7.06331C17.9453 7.40479 18.2153 7.81095 18.3979 8.25802C18.5804 8.7051 18.672 9.1841 18.6672 9.667C18.6672 12.187 16.4002 14.24 12.9672 17.36L12.0002 18.233Z" fill="#969696"/>
</g>
</g>
</g>
<defs>
<clipPath id="clip0_24_4896">
<rect width="24" height="24" fill="white"/>
</clipPath>
</defs>
</svg>
